HIERARCHY
ROOT Hips
{
	OFFSET -0.001795 -0.223333 0.028219
	CHANNELS 6 Xposition Yposition Zposition Zrotation Yrotation Xrotation 
	JOINT LeftUpLeg
	{
		OFFSET 0.069520 -0.091406 -0.006815
		CHANNELS 3 Zrotation Yrotation Xrotation
		JOINT LeftLeg
		{
			OFFSET 0.034277 -0.375199 -0.004496
			CHANNELS 3 Zrotation Yrotation Xrotation
			JOINT LeftFoot
			{
				OFFSET -0.013596 -0.397961 -0.043693
				CHANNELS 3 Zrotation Yrotation Xrotation
				JOINT LeftToe
				{
					OFFSET 0.026358 -0.055791 0.119288
					CHANNELS 3 Zrotation Yrotation Xrotation
					End Site
					{
						OFFSET 0.000000 0.000000 0.000000
					}
				}
			}
		}
	}
	JOINT RightUpLeg
	{
		OFFSET -0.067670 -0.090522 -0.004320
		CHANNELS 3 Zrotation Yrotation Xrotation
		JOINT RightLeg
		{
			OFFSET -0.038290 -0.382569 -0.008850
			CHANNELS 3 Zrotation Yrotation Xrotation
			JOINT RightFoot
			{
				OFFSET 0.015774 -0.398415 -0.042312
				CHANNELS 3 Zrotation Yrotation Xrotation
				JOINT RightToe
				{
					OFFSET -0.025372 -0.048144 0.123348
					CHANNELS 3 Zrotation Yrotation Xrotation
					End Site
					{
						OFFSET 0.000000 0.000000 0.000000
					}
				}
			}
		}
	}
	JOINT Spine
	{
		OFFSET -0.002533 0.108963 -0.026696
		CHANNELS 3 Zrotation Yrotation Xrotation
		JOINT Spine1
		{
			OFFSET 0.005487 0.135180 0.001092
			CHANNELS 3 Zrotation Yrotation Xrotation
			JOINT Spine2
			{
				OFFSET 0.001457 0.052922 0.025425
				CHANNELS 3 Zrotation Yrotation Xrotation
				JOINT Neck
				{
					OFFSET -0.002778 0.213870 -0.042857
					CHANNELS 3 Zrotation Yrotation Xrotation
					JOINT Head
					{
						OFFSET 0.005152 0.064970 0.051349
						CHANNELS 3 Zrotation Yrotation Xrotation
						End Site
						{
							OFFSET 0.000000 0.000000 0.000000
						}
					}
				}
				JOINT LeftShoulder
				{
					OFFSET 0.078845 0.121749 -0.034090
					CHANNELS 3 Zrotation Yrotation Xrotation
					JOINT LeftArm
					{
						OFFSET 0.090977 0.030469 -0.008868
						CHANNELS 3 Zrotation Yrotation Xrotation
						JOINT LeftForeArm
						{
							OFFSET 0.259612 -0.012772 -0.027456
							CHANNELS 3 Zrotation Yrotation Xrotation
							JOINT LeftHand
							{
								OFFSET 0.249234 0.008986 -0.001171
								CHANNELS 3 Zrotation Yrotation Xrotation
								End Site
								{
									OFFSET 0.000000 0.000000 0.000000
								}
							}
						}
					}
				}
				JOINT RightShoulder
				{
					OFFSET -0.081759 0.118833 -0.038615
					CHANNELS 3 Zrotation Yrotation Xrotation
					JOINT RightArm
					{
						OFFSET -0.096012 0.032551 -0.009143
						CHANNELS 3 Zrotation Yrotation Xrotation
						JOINT RightForeArm
						{
							OFFSET -0.253742 -0.013329 -0.021401
							CHANNELS 3 Zrotation Yrotation Xrotation
							JOINT RightHand
							{
								OFFSET -0.255298 0.007772 -0.005559
								CHANNELS 3 Zrotation Yrotation Xrotation
								End Site
								{
									OFFSET 0.000000 0.000000 0.000000
								}
							}
						}
					}
				}
			}
		}
	}
}
MOTION
Frames: 15
Frame Time: 0.050000
0.000000 0.925498 0.000000 -0.561897 3.689882 -0.701577 8.919046 -0.357604 -11.687053 -11.757471 3.070407 31.914909 8.187244 16.589761 -1.125046 0.000000 0.000000 0.000000 2.453267 -0.188644 1.198553 4.600586 -0.589622 9.254207 -5.198313 -12.358287 -5.549993 0.000000 0.000000 0.000000 -0.419391 -0.597574 14.307008 3.093386 -0.083764 -23.988592 1.661336 0.777227 25.902913 -1.461034 2.996792 -29.077158 0.000000 0.000000 0.000000 -29.834050 1.467306 -4.236915 -47.178091 -5.659269 -5.234614 -13.887555 -26.608751 4.492173 0.000000 0.000000 0.000000 19.644686 4.329521 2.107867 49.825142 10.059367 -3.265547 9.911842 26.760276 3.492989 0.000000 0.000000 0.000000 
0.003575 0.927121 0.019310 -0.704117 3.961489 -0.618256 10.326557 -0.283174 -14.478630 -11.109194 2.592643 27.821585 8.372791 17.244290 1.386966 0.000000 0.000000 0.000000 2.404387 -0.425077 3.078575 4.439355 -0.549497 7.679270 -4.571509 -10.831635 -4.430229 0.000000 0.000000 0.000000 -0.529998 -0.637273 15.306896 4.385907 -0.343583 -24.984230 1.475508 0.884035 25.838417 -3.154549 3.961818 -30.820019 0.000000 0.000000 0.000000 -31.006800 4.117583 -6.382355 -46.147746 -4.368108 -5.496178 -16.376026 -25.033475 4.749641 0.000000 0.000000 0.000000 17.409367 5.317767 2.651796 51.430489 10.668595 -2.984275 10.629700 29.012872 4.069788 0.000000 0.000000 0.000000 
0.008552 0.926801 0.040236 -0.632386 2.187187 -1.435338 9.952079 -0.244928 -15.633583 -9.302334 1.878407 20.940575 8.763277 17.990820 1.549642 0.000000 0.000000 0.000000 1.839917 -0.744153 5.967060 4.402646 -0.503879 6.554354 -4.031179 -9.125773 -4.375470 0.000000 0.000000 0.000000 -0.530299 -0.655470 16.573877 4.106223 -0.247139 -26.094165 1.834124 2.416955 26.845413 -3.793342 4.409108 -30.013556 0.000000 0.000000 0.000000 -31.274498 4.122422 -6.577091 -45.797100 -2.744186 -6.083743 -14.413974 -23.292510 3.975830 0.000000 0.000000 0.000000 17.007539 6.352209 3.297435 50.836603 12.772733 -2.218951 9.574146 29.037338 3.814067 0.000000 0.000000 0.000000 
0.014914 0.924495 0.063232 -1.059246 1.154711 -2.257007 10.480043 -0.114605 -15.158842 -7.852358 1.255849 12.447889 7.868572 16.411257 2.698123 0.000000 0.000000 0.000000 1.766884 -1.045392 8.611056 4.296457 -0.469480 6.143531 -4.019675 -9.141557 -3.837708 0.000000 0.000000 0.000000 -0.862383 -0.648782 18.256620 4.819878 -0.393726 -26.629480 1.754968 3.630940 26.829752 -3.732787 4.494240 -31.413088 0.000000 0.000000 0.000000 -31.550663 5.792473 -8.048081 -45.056306 -1.673338 -6.252647 -14.942100 -21.751414 3.769215 0.000000 0.000000 0.000000 16.232459 6.987689 3.699004 50.226400 14.051494 -1.683839 10.566140 29.843300 4.221646 0.000000 0.000000 0.000000 
0.022909 0.919980 0.088760 -1.003095 0.259892 -3.087729 10.162982 -0.094142 -14.610301 -5.806359 0.710197 4.317575 6.047129 13.084945 3.245118 0.000000 0.000000 0.000000 1.047709 -1.297800 11.608982 3.950046 -0.402856 5.453968 -3.490397 -7.191074 -4.973991 0.000000 0.000000 0.000000 -1.467367 -0.562927 19.511716 4.622626 -0.457636 -25.229218 2.469308 4.707812 25.770972 -3.216367 4.316595 -31.477146 0.000000 0.000000 0.000000 -31.304550 5.350192 -7.924802 -44.891035 -0.229935 -6.574113 -13.580751 -21.016389 3.342184 0.000000 0.000000 0.000000 16.288745 6.557090 3.532655 49.971413 15.219919 -1.094519 9.037456 32.244744 4.236891 0.000000 0.000000 0.000000 
0.033008 0.912579 0.117076 -1.226696 -0.214554 -3.188177 9.942965 -0.099764 -14.662425 -4.599532 0.517466 0.996596 4.703905 10.359234 2.365237 0.000000 0.000000 0.000000 0.537663 -1.394437 13.186074 4.261208 -0.444655 5.663904 -3.047639 -4.946202 -7.102296 0.000000 0.000000 0.000000 -2.277081 -0.417706 19.760817 5.003168 -0.547214 -25.398910 2.761289 4.922234 25.989969 -2.086451 3.732621 -31.381580 0.000000 0.000000 0.000000 -30.910435 5.783558 -8.086772 -44.981425 0.988363 -7.050879 -12.099879 -19.768482 2.881915 0.000000 0.000000 0.000000 16.655093 7.239435 3.888715 48.915262 16.212065 -0.744475 8.404987 32.792383 4.102774 0.000000 0.000000 0.000000 
0.045643 0.905927 0.148160 -1.543509 -0.722235 -3.205388 9.732123 -0.109107 -15.238875 -4.643471 0.543047 3.055790 4.191711 9.726503 3.940797 0.000000 0.000000 0.000000 0.226711 -1.385893 13.628871 3.830846 -0.352935 8.058217 -2.883386 -3.387622 -9.017865 0.000000 0.000000 0.000000 -2.647230 -0.336477 19.599061 4.943624 -0.536976 -25.447441 2.829660 4.924836 26.708602 -0.771285 2.995580 -30.739315 0.000000 0.000000 0.000000 -31.566456 5.368656 -7.810621 -44.497391 1.998819 -7.407513 -10.302709 -19.504571 2.554170 0.000000 0.000000 0.000000 17.908265 7.060302 3.845358 47.923947 16.621450 -0.743960 7.935702 33.376122 4.040819 0.000000 0.000000 0.000000 
0.060991 0.902384 0.181528 -1.433980 -1.377601 -3.355515 8.972576 -0.181447 -15.369408 -5.260564 0.695820 7.106083 4.434823 10.375785 4.999208 0.000000 0.000000 0.000000 -1.297615 -1.139852 13.454181 4.407569 -0.428303 11.747612 -3.603028 -4.977428 -10.199294 0.000000 0.000000 0.000000 -3.127495 -0.229869 19.429900 4.815902 -0.548540 -25.003534 2.782984 4.970373 26.829556 -0.322000 2.722132 -31.188806 0.000000 0.000000 0.000000 -31.647182 4.859868 -7.312457 -44.142029 1.644850 -7.285290 -10.275084 -19.038075 2.495707 0.000000 0.000000 0.000000 18.394009 7.179325 3.866050 47.626260 16.253392 -0.928002 8.645947 34.955007 4.489655 0.000000 0.000000 0.000000 
0.078039 0.904726 0.215487 -1.368416 -2.135726 -3.720673 8.503121 -0.201631 -14.791887 -6.491952 1.004190 9.665161 5.506950 12.329228 5.227494 0.000000 0.000000 0.000000 -2.295793 -0.993091 13.652173 2.994478 -0.036265 15.628222 -3.367467 -5.570788 -7.202238 0.000000 0.000000 0.000000 -4.032295 -0.053307 19.050481 4.858141 -0.642633 -23.987864 3.362507 5.276588 26.442015 -0.068306 2.591406 -31.785940 0.000000 0.000000 0.000000 -31.377450 4.034476 -6.612269 -43.909484 0.952845 -7.002113 -9.468268 -17.813646 2.200735 0.000000 0.000000 0.000000 18.363276 7.204413 3.810650 47.531584 15.853130 -1.017129 7.726798 34.301651 4.085279 0.000000 0.000000 0.000000 
0.095159 0.910335 0.248505 -1.036077 -1.524228 -4.154727 7.358448 -0.310159 -12.480806 -6.903462 1.089260 10.264284 5.547597 12.238810 4.023416 0.000000 0.000000 0.000000 -3.545362 -0.631188 10.349590 4.358874 -0.306559 25.123675 -4.541024 -10.208617 -4.048079 0.000000 0.000000 0.000000 -4.484043 -0.003458 19.305956 4.436003 -0.508307 -24.361899 2.714527 3.214971 27.528371 -0.143712 2.346943 -31.970729 0.000000 0.000000 0.000000 -30.804321 3.812157 -5.532899 -44.487661 -1.698924 -6.562563 -8.144587 -18.443883 2.139828 0.000000 0.000000 0.000000 18.954851 8.037733 3.915890 47.203561 15.535140 -1.210314 8.034674 35.107470 4.202334 0.000000 0.000000 0.000000 
0.110978 0.916617 0.279675 -0.692773 -2.095715 -4.487936 6.198830 -0.308537 -9.190374 -7.107503 1.115122 9.109048 5.381526 11.870974 3.670832 0.000000 0.000000 0.000000 -5.615955 -0.091085 3.785692 7.742719 -1.594587 37.921216 -6.855197 -16.954784 1.545590 0.000000 0.000000 0.000000 -5.575390 0.197604 19.338515 5.168141 -0.756551 -23.614344 2.289759 2.242513 26.987361 -0.085543 2.086749 -31.733639 0.000000 0.000000 0.000000 -30.127524 2.981002 -4.295560 -43.770451 -4.257070 -5.744999 -9.191755 -19.610682 2.492586 0.000000 0.000000 0.000000 18.270189 8.502412 3.761750 48.444068 14.562696 -1.412705 8.059528 35.073338 4.114459 0.000000 0.000000 0.000000 
0.124310 0.920881 0.309250 -0.906519 -1.796662 -5.085112 5.072976 -0.243828 -5.753011 -7.389070 1.137568 8.377655 5.676660 12.095015 1.536389 0.000000 0.000000 0.000000 -6.348089 0.209582 -2.776498 10.665901 -3.431020 46.799373 -9.389690 -22.381958 6.791112 0.000000 0.000000 0.000000 -5.604387 0.203482 20.914765 5.412014 -0.732958 -24.712795 1.414441 -0.398229 27.415151 -0.248701 1.763209 -32.111840 0.000000 0.000000 0.000000 -29.911404 1.797241 -2.433445 -42.447127 -7.366500 -4.958330 -9.626104 -21.087378 2.833287 0.000000 0.000000 0.000000 17.793957 8.440615 3.107982 49.553889 13.450630 -1.774662 9.760101 34.946575 4.423947 0.000000 0.000000 0.000000 
0.134919 0.923305 0.338503 -1.275974 -1.663821 -5.706148 4.479310 -0.121777 -2.889594 -6.961093 1.049288 8.312444 5.579974 11.600501 -0.190137 0.000000 0.000000 0.000000 -6.153352 0.420097 -7.506698 13.345534 -5.077427 48.090612 -11.895961 -27.175470 6.354404 0.000000 0.000000 0.000000 -4.860234 0.065749 22.583751 5.752724 -0.829714 -24.648074 0.132852 -2.559886 26.500130 -1.428304 2.064867 -32.759904 0.000000 0.000000 0.000000 -29.475992 0.291832 -0.658258 -40.629102 -10.606973 -3.932677 -10.638045 -22.902516 3.307276 0.000000 0.000000 0.000000 17.839244 9.096085 2.898171 50.417327 12.323482 -2.039977 10.306932 35.050994 4.407497 0.000000 0.000000 0.000000 
0.143579 0.925941 0.368204 -1.608718 -2.256041 -6.710060 3.790448 0.100453 0.991000 -6.715403 0.994651 7.449140 5.578123 11.378947 -1.568863 0.000000 0.000000 0.000000 -4.826303 0.679692 -10.702838 14.280451 -5.067469 43.694409 -13.159534 -29.834554 4.503007 0.000000 0.000000 0.000000 -4.351870 -0.008563 24.044418 5.970851 -0.866106 -25.136458 -0.103702 -3.837594 26.302490 -1.844561 1.997282 -32.047567 0.000000 0.000000 0.000000 -29.914155 -0.644566 0.587865 -38.911434 -14.176968 -2.976784 -9.264602 -25.735429 3.473584 0.000000 0.000000 0.000000 17.770874 9.189472 2.541310 51.279332 10.758844 -2.636343 11.418559 35.073294 4.615685 0.000000 0.000000 0.000000 
0.150358 0.927500 0.397905 -1.804896 -2.570217 -7.082004 3.101597 0.336003 4.447508 -6.267699 0.884662 6.053615 5.464479 11.026730 -2.358521 0.000000 0.000000 0.000000 -2.725847 1.019806 -12.715633 12.986619 -3.811041 36.051663 -13.116952 -30.096332 2.522394 0.000000 0.000000 0.000000 -4.114626 -0.045070 24.198326 6.604092 -1.067119 -24.692835 -0.804724 -4.999531 26.163146 -2.912896 2.348765 -32.069907 0.000000 0.000000 0.000000 -29.799375 -1.046134 1.357044 -38.328734 -17.186544 -2.198935 -7.070464 -28.729427 3.418835 0.000000 0.000000 0.000000 17.562846 9.144911 2.187592 51.424450 9.274335 -3.181313 12.799010 34.407894 4.792355 0.000000 0.000000 0.000000 
